<svg xmlns="http://www.w3.org/2000/svg" xmlns:xlink="http://www.w3.org/1999/xlink" width="1748.159" height="286.162"><path d="M0 0h165.903v41.674H103.6v244.488H61.916V41.674H0z"/><use xlink:href="#B"/><path d="M376.127 0h35.72v286.162h-35.72z"/><use xlink:href="#B" x="307.749"/><path d="M802.548 71.44q27.783 0 42.865 13.9 15.082 13.9 15.082 40.483V229.8q0 24.608-15.48 40.483-15.48 15.876-37.705 15.876h-70.25q-21.83 0-37.705-17.463-15.48-17.463-15.48-42.865V0h35.72v71.44zm-59.534 179h62.313q7.938 0 13.494-6.35 5.953-6.35 5.953-16.273V131.37q0-24.2-23.417-24.2h-58.74q-23.02 0-23.02 23.417v94.064q0 11.113 5.953 18.654 6.35 7.144 17.463 7.144zm167.596-179h35.324v214.72H910.6zM927.28 0q10.716 0 17.86 7.54 7.54 7.54 7.54 17.463 0 9.526-7.144 17.067-7.144 7.54-17.463 7.54-9.525 0-17.067-7.144-7.54-7.144-7.54-17.463 0-11.113 6.747-17.86Q916.96 0 927.28 0zm246.4 225.834q0 25.4-15.876 42.865-15.48 17.463-37.308 17.463h-70.25q-9.13 0-20.242-4.763-10.716-4.763-21.83-15.48-11.113-10.716-11.113-36.118V125.816q0-25.798 14.685-40.086 15.084-14.3 43.264-14.3h82.95V0h35.72zm-121.847 24.608h62.7q10.32 0 16.67-7.144 6.747-7.54 6.747-18.654V130.58q0-23.417-23.02-23.417h-58.74q-23.417 0-23.417 24.2v96.446q0 9.13 5.557 15.876 5.557 6.747 13.494 6.747z"/><path d="M1224.182 0h123.435q23.417 0 36.118 3.572 13.098 3.572 28.577 17.463 15.876 13.494 15.876 47.628v40.88q0 32.942-20.242 52.4-19.845 19.05-55.565 19.05h-86.92V286.17h-41.277zm41.277 139.707h86.523q18.654 0 27-7.144 8.335-7.144 8.335-25.004v-36.9q0-15.48-7.938-22.226-7.938-6.747-26.592-6.747h-87.317zm199.04-11.5q0-28.577 11.907-42.468 5.557-5.557 17.86-9.922 12.304-4.366 23.02-4.366h20.242v36.118h-17.464q-19.845 0-19.845 21.432v157.17h-35.72zm103.865 104.78v-111.13q0-23.417 15.082-36.9 15.48-13.494 42.07-13.494h65.488q25.798 0 41.277 13.9 15.876 13.494 15.876 36.514v111.528q0 22.623-16.273 37.705-16.273 15.082-40.88 15.082h-65.488q-25.005 0-41.277-14.685-15.876-14.685-15.876-38.5zm61.122 17.463h57.55q25.4 0 25.4-27v-90.49q0-25.798-25.4-25.798h-57.55q-25.4 0-25.4 25.798v88.905q0 14.685 5.953 21.83 5.953 6.747 19.448 6.747z" fill="#f60"/><defs ><path id="B" d="M212.767 286.162q-25.798 0-42.468-15.48-7.938-7.938-11.907-17.86-3.97-9.922-3.97-23.417v-96.05q0-61.916 65.885-61.916h53.184q26.99 0 41.674 14.685 15.082 14.288 15.082 40.483v25.4l-140.104 65.09v7.144l1.19 9.13 1.19 5.953q.397 1.19.794 2.38.397.794 2.38 4.763 2.38 3.97 18.654 3.97h117.878v35.72zm-22.623-108.75l103.987-48.42v-3.572q0-9.922-4.763-13.89-4.763-4.366-17.067-4.366h-58.344q-23.814 0-23.814 26.99z"/></defs></svg>