<?xml version="1.0" encoding="UTF-8" standalone="no"?>
<!-- Created with Inkscape (http://www.inkscape.org/) -->

<svg
   xmlns:dc="http://purl.org/dc/elements/1.1/"
   xmlns:cc="http://creativecommons.org/ns#"
   xmlns:rdf="http://www.w3.org/1999/02/22-rdf-syntax-ns#"
   xmlns:svg="http://www.w3.org/2000/svg"
   xmlns="http://www.w3.org/2000/svg"
   xmlns:sodipodi="http://sodipodi.sourceforge.net/DTD/sodipodi-0.dtd"
   xmlns:inkscape="http://www.inkscape.org/namespaces/inkscape"
   version="1.1"
   id="svg2"
   xml:space="preserve"
   width="340.77719"
   height="413.19421"
   viewBox="0 0 340.77719 413.19421"
   sodipodi:docname="3.telebid.svg"
   inkscape:version="0.92.4 5da689c313, 2019-01-14"><metadata
     id="metadata8"><rdf:RDF><cc:Work
         rdf:about=""><dc:format>image/svg+xml</dc:format><dc:type
           rdf:resource="http://purl.org/dc/dcmitype/StillImage" /><dc:title></dc:title></cc:Work></rdf:RDF></metadata><defs
     id="defs6"><clipPath
       clipPathUnits="userSpaceOnUse"
       id="clipPath18"><path
         d="M 0,595.276 H 841.89 V 0 H 0 Z"
         id="path16"
         inkscape:connector-curvature="0" /></clipPath></defs><sodipodi:namedview
     pagecolor="#ffffff"
     bordercolor="#666666"
     borderopacity="1"
     objecttolerance="10"
     gridtolerance="10"
     guidetolerance="10"
     inkscape:pageopacity="0"
     inkscape:pageshadow="2"
     inkscape:window-width="640"
     inkscape:window-height="480"
     id="namedview4"
     showgrid="false"
     fit-margin-top="0"
     fit-margin-left="0"
     fit-margin-right="0"
     fit-margin-bottom="0"
     inkscape:zoom="0.27972775"
     inkscape:cx="169.71695"
     inkscape:cy="206.90119"
     inkscape:window-x="0"
     inkscape:window-y="0"
     inkscape:window-maximized="0"
     inkscape:current-layer="g10" /><g
     id="g10"
     inkscape:groupmode="layer"
     inkscape:label="IT Step logo"
     transform="matrix(1.3333333,0,0,-1.3333333,-391.54306,603.14369)"><g
       id="g12"><g
         id="g14"
         clip-path="url(#clipPath18)"><g
           id="g20"
           transform="translate(370.9683,389.0831)"><path
             d="m 0,0 c 0.153,-0.016 0.312,-0.033 0.45,0.035 0.291,0.35 0.687,0.605 0.546,1.143 1.173,1.35 2.028,3.608 1.32,5.57 C 1.895,7.667 1.038,7.593 0.192,7.516 -0.417,7.461 -1.021,7.409 -1.46,7.722 L -1.478,8.3 -16.971,14.478 c -0.717,3.307 -2.319,6.138 -3.698,9.052 -0.445,6.741 -6.27,11.256 -6.181,17.902 0.846,1.263 1.839,1.101 2.848,0.936 0.569,-0.091 1.144,-0.181 1.697,-0.013 0.747,0.596 1.158,1.038 0.817,2.169 0.324,0.223 0.394,0.895 0.94,0.965 0.12,1.54 -0.201,3.255 1.677,3.687 -0.613,1.241 -1.578,2.31 -1.746,3.861 1.139,2.284 -0.431,5.25 -0.316,7.619 -2.325,0.875 -4.907,2.698 -7.512,2.616 -1.134,-0.035 -2.273,-0.433 -3.401,-1.431 -2.049,-2.299 -3.347,-4.789 -3.271,-7.216 0.017,-4.747 0.741,-4.895 1.172,-8.097 -0.691,-0.659 -0.687,-2.416 -2.059,-1.738 -1.756,-2.249 -3.8,-4.798 -5.731,-7.141 -6.016,-5.492 -14.479,-10.653 -15.491,-19.663 0.535,-6.809 0.682,-13.414 0.461,-20.317 0.239,-0.029 0.502,-0.004 0.763,0.019 0.477,0.043 0.947,0.088 1.266,-0.185 -0.099,-0.134 -0.138,-0.234 -0.212,-0.343 l -0.042,-0.001 c 0.012,-0.379 0.023,-0.72 -0.032,-1.101 l 0.517,0.016 c 0.987,-2.122 0.118,-5.178 0.704,-7.464 0.557,-0.766 0.358,-2.405 1.531,-2.46 -0.009,0.296 -0.077,0.648 0.19,0.874 l 1.043,-1.917 c 0.652,-0.334 0.701,0.531 1.006,0.837 0.471,-0.239 0.159,-0.935 0.263,-1.381 0.253,-0.309 0.515,-0.707 1.037,-0.536 l 0.287,5.848 c 0.7,-1.714 0.675,-3.86 0.938,-5.81 l 0.527,0.017 c 0.893,0.826 0.379,2.246 0.499,3.393 -0.351,3.443 0.112,6.398 -1.37,9.354 0.459,0.384 0.626,0.827 0.534,1.478 0.333,0.082 0.394,0.611 0.793,0.523 0.972,6.14 0.552,13.164 0.73,19.218 l 2.078,1.718 c 1.944,-8.704 0.396,-17.752 -1.12,-26.416 0.543,-1.555 1.078,-3.463 0.463,-5.294 l -0.066,-3.326 0.263,0.009 0.057,1.499 c 0.102,-3.266 -1.002,-7.333 1.371,-8.935 -0.045,-8.459 -0.086,-16.867 -1.275,-24.758 -5.032,-12.203 -12.784,-24.464 -11.765,-38.216 l 5.985,0.034 0.634,1.395 c 5.274,-0.789 11.268,-2.201 15.75,1.469 -0.604,2.92 -4.776,1.574 -6.832,2.956 -0.993,0.554 -2.23,1.107 -2.908,2.074 l -0.967,0.091 c 1.39,6.237 4.539,11.729 7.303,17.304 7.913,9.994 7.461,23.443 8.882,36.119 0.281,0.537 0.789,0.657 1.303,0.612 0.366,0.049 0.821,0.053 1.307,0.056 1.603,0.017 3.486,0.041 3.044,1.744 7.61,-0.545 13.882,-4.439 21.426,-5.446 -0.151,-0.794 -0.643,-1.439 -0.857,-2.203 -0.114,-1.991 -0.188,-3.911 -0.283,-5.818 l -0.022,-1.469 c -0.243,-9.74 -0.197,-15.352 1.695,-24.686 l 5.331,0.167 0.55,1.368 c 5.049,0.37 10.966,-0.236 15.656,3.066 -0.898,2.808 -4.944,1.007 -7.176,2.222 -1.245,0.618 -3.018,1.225 -3.53,2.687 -0.504,9.977 0.159,20.355 1.955,30.126 -7.536,10.087 -18.158,12.226 -27.631,17.189 0.362,1.135 0.025,0.846 0.634,1.861 -2.506,0.002 -4.031,2.032 -6.188,1.322 -0.455,2.463 -0.737,5.45 -0.179,8.034 0.701,-0.561 1.503,-0.803 2.011,-1.599 4.883,-1.77 10.29,-2.262 15.029,-4.579 l 1.783,1.205"
             style="fill:#0d5383;fill-opacity:1;fill-rule:nonzero;stroke:none"
             id="path22"
             inkscape:connector-curvature="0" /></g><g
           id="g24"
           transform="translate(338.9663,222.5573)"><path
             d="m 0,0 c -0.996,-2.017 -2.92,-3.708 -5.774,-5.074 -2.855,-1.365 -6.178,-2.048 -9.967,-2.048 -4.157,0 -7.707,0.787 -10.646,2.361 -2.942,1.575 -4.866,3.581 -5.777,6.017 -0.909,2.435 -1.365,5.892 -1.365,10.371 v 3.912 h 14.431 v -7.27 c 0,-2.241 0.202,-3.68 0.609,-4.32 0.405,-0.639 1.125,-0.959 2.159,-0.959 1.032,0 1.801,0.406 2.306,1.218 0.504,0.813 0.756,2.018 0.756,3.617 0,3.518 -0.479,5.819 -1.439,6.901 -0.983,1.083 -3.407,2.891 -7.271,5.426 -3.862,2.559 -6.42,4.416 -7.675,5.574 -1.257,1.156 -2.295,2.754 -3.119,4.796 -0.825,2.043 -1.238,4.652 -1.238,7.825 0,4.576 0.585,7.923 1.755,10.04 1.168,2.115 3.056,3.769 5.664,4.964 2.609,1.192 5.758,1.789 9.449,1.789 4.035,0 7.473,-0.653 10.314,-1.956 2.842,-1.304 4.726,-2.947 5.648,-4.927 0.924,-1.982 1.384,-5.346 1.384,-10.095 v -2.361 h -14.432 v 4.428 c 0,2.067 -0.184,3.382 -0.553,3.95 -0.369,0.565 -0.983,0.848 -1.845,0.848 -0.935,0 -1.643,-0.381 -2.122,-1.145 -0.479,-0.764 -0.72,-1.92 -0.72,-3.471 0,-1.994 0.269,-3.497 0.809,-4.507 0.515,-1.009 1.979,-2.226 4.391,-3.653 C -7.351,28.146 -2.994,24.777 -1.199,22.146 0.598,19.512 1.496,15.268 1.496,9.412 1.496,5.155 0.998,2.018 0,0 M -45.309,-22.989 H 12.796 V 80.979 h -58.105 z"
             style="fill:#0d5383;fill-opacity:1;fill-rule:nonzero;stroke:none"
             id="path26"
             inkscape:connector-curvature="0" /></g><g
           id="g28"
           transform="translate(405.9429,265.8073)"><path
             d="M 0,0 H -9.607 V -49.768 H -25.786 V 0 h -9.57 V 12.452 H 0 Z M -46.73,-66.239 H 11.375 V 61.22 H -46.73 Z"
             style="fill:#0d5383;fill-opacity:1;fill-rule:nonzero;stroke:none"
             id="path30"
             inkscape:connector-curvature="0" /></g><g
           id="g32"
           transform="translate(469.3398,216.0065)"><path
             d="M 0,0 H -27.765 V 64.687 H -1.118 V 51.742 H -12.344 V 39.475 H -1.838 V 27.169 H -12.344 V 12.945 H 0 Z m -44.572,-16.438 h 58.105 v 151.696 h -58.105 z"
             style="fill:#0d5383;fill-opacity:1;fill-rule:nonzero;stroke:none"
             id="path34"
             inkscape:connector-curvature="0" /></g><g
           id="g36"
           transform="translate(518.126,267.6354)"><path
             d="m 0,0 v -15.851 c 0.461,-0.025 0.858,-0.038 1.192,-0.038 1.487,0 2.521,0.366 3.097,1.096 0.577,0.731 0.866,2.252 0.866,4.56 v 5.116 c 0,2.129 -0.334,3.514 -1.001,4.155 C 3.487,-0.322 2.103,0 0,0"
             style="fill:#0d5383;fill-opacity:1;fill-rule:nonzero;stroke:none"
             id="path38"
             inkscape:connector-curvature="0" /></g><g
           id="g40"
           transform="translate(536.8223,255.4391)"><path
             d="m 0,0 c 0,-3.975 -0.409,-6.873 -1.23,-8.694 -0.823,-1.821 -2.329,-3.218 -4.52,-4.194 -2.193,-0.973 -5.059,-1.461 -8.6,-1.461 h -4.346 v -25.084 h -14.795 v 62.286 h 14.909 c 4.411,0 7.805,-0.347 10.177,-1.04 2.372,-0.692 4.155,-1.691 5.347,-3.001 1.194,-1.307 2.001,-2.891 2.423,-4.75 C -0.21,12.202 0,9.323 0,5.426 Z m -46.499,-55.871 h 58.105 v 175.187 h -58.105 z"
             style="fill:#0d5383;fill-opacity:1;fill-rule:nonzero;stroke:none"
             id="path42"
             inkscape:connector-curvature="0" /></g><path
           d="m 307.185,143.374 h -11.277 v 43.37 h 11.277 z"
           style="fill:#0d5383;fill-opacity:1;fill-rule:nonzero;stroke:none"
           id="path44"
           inkscape:connector-curvature="0" /><g
           id="g46"
           transform="translate(334.4287,186.7438)"><path
             d="M 0,0 V -8.679 H -6.697 V -43.37 h -11.278 v 34.691 h -6.669 V 0 Z"
             style="fill:#0d5383;fill-opacity:1;fill-rule:nonzero;stroke:none"
             id="path48"
             inkscape:connector-curvature="0" /></g><g
           id="g50"
           transform="translate(360.189,158.8571)"><path
             d="M 0,0 C -0.571,4.913 -1.144,10.984 -1.717,18.216 -2.867,9.911 -3.588,3.84 -3.882,0 Z m 5.978,27.887 6.448,-43.37 H 0.9 l -0.605,7.795 h -4.034 l -0.677,-7.795 h -11.66 l 5.753,43.37 z"
             style="fill:#0d5383;fill-opacity:1;fill-rule:nonzero;stroke:none"
             id="path52"
             inkscape:connector-curvature="0" /></g><g
           id="g54"
           transform="translate(400.8633,167.8571)"><path
             d="m 0,0 h -11.278 v 7.539 c 0,2.191 -0.12,3.559 -0.361,4.104 -0.242,0.543 -0.773,0.815 -1.595,0.815 -0.929,0 -1.517,-0.331 -1.767,-0.992 -0.251,-0.66 -0.374,-2.089 -0.374,-4.285 v -20.147 c 0,-2.106 0.123,-3.482 0.374,-4.124 0.25,-0.643 0.812,-0.966 1.688,-0.966 0.838,0 1.388,0.323 1.646,0.968 0.26,0.644 0.389,2.157 0.389,4.538 v 5.451 H 0 v -1.688 c 0,-4.491 -0.317,-7.675 -0.952,-9.551 -0.633,-1.879 -2.035,-3.525 -4.205,-4.938 -2.17,-1.411 -4.844,-2.119 -8.022,-2.119 -3.305,0 -6.029,0.598 -8.171,1.795 -2.143,1.196 -3.563,2.853 -4.26,4.97 -0.695,2.115 -1.043,5.298 -1.043,9.551 v 12.67 c 0,3.125 0.106,5.47 0.32,7.031 0.215,1.564 0.852,3.068 1.915,4.515 1.063,1.447 2.536,2.584 4.421,3.415 1.884,0.83 4.048,1.245 6.496,1.245 3.321,0 6.063,-0.642 8.224,-1.926 2.161,-1.284 3.579,-2.885 4.258,-4.802 C -0.34,11.152 0,8.169 0,4.121 Z"
             style="fill:#0d5383;fill-opacity:1;fill-rule:nonzero;stroke:none"
             id="path56"
             inkscape:connector-curvature="0" /></g><g
           id="g58"
           transform="translate(418.4263,158.8571)"><path
             d="M 0,0 C -0.571,4.913 -1.144,10.984 -1.717,18.216 -2.867,9.911 -3.588,3.84 -3.882,0 Z m 5.977,27.887 6.448,-43.37 H 0.9 l -0.605,7.795 h -4.034 l -0.677,-7.795 h -11.66 l 5.753,43.37 z"
             style="fill:#0d5383;fill-opacity:1;fill-rule:nonzero;stroke:none"
             id="path60"
             inkscape:connector-curvature="0" /></g><g
           id="g62"
           transform="translate(444.0449,179.3229)"><path
             d="m 0,0 v -28.529 c 1.625,0 2.626,0.326 3.001,0.978 0.375,0.651 0.562,2.423 0.562,5.317 v 16.85 c 0,1.965 -0.063,3.223 -0.187,3.778 C 3.251,-1.054 2.964,-0.647 2.519,-0.388 2.072,-0.129 1.232,0 0,0 m -11.278,7.421 h 8.439 c 5.447,0 9.13,-0.25 11.05,-0.75 1.919,-0.501 3.38,-1.321 4.379,-2.464 1.001,-1.144 1.626,-2.416 1.877,-3.818 0.249,-1.403 0.375,-4.157 0.375,-8.264 v -15.189 c 0,-3.895 -0.185,-6.497 -0.551,-7.81 -0.366,-1.313 -1.004,-2.34 -1.915,-3.081 -0.911,-0.74 -2.035,-1.257 -3.374,-1.553 -1.341,-0.295 -3.358,-0.441 -6.056,-0.441 h -14.224 z"
             style="fill:#0d5383;fill-opacity:1;fill-rule:nonzero;stroke:none"
             id="path64"
             inkscape:connector-curvature="0" /></g><g
           id="g66"
           transform="translate(463.0898,186.7438)"><path
             d="m 0,0 h 18.807 v -8.679 h -7.529 v -8.225 h 7.046 v -8.25 h -7.046 v -9.536 h 8.279 v -8.68 H 0 Z"
             style="fill:#0d5383;fill-opacity:1;fill-rule:nonzero;stroke:none"
             id="path68"
             inkscape:connector-curvature="0" /></g><g
           id="g70"
           transform="translate(520.6836,186.7438)"><path
             d="m 0,0 v -43.37 h -9.857 l -0.013,29.28 -3.925,-29.28 h -6.992 l -4.139,28.609 -0.013,-28.609 h -9.859 V 0 h 14.595 c 0.431,-2.607 0.879,-5.681 1.338,-9.22 l 1.6,-11.032 L -14.672,0 Z"
             style="fill:#0d5383;fill-opacity:1;fill-rule:nonzero;stroke:none"
             id="path72"
             inkscape:connector-curvature="0" /></g><g
           id="g74"
           transform="translate(549.2402,186.7438)"><path
             d="M 0,0 -8.224,-27.673 V -43.37 h -10.447 v 15.697 L -26.601,0 h 10.36 c 1.62,-8.466 2.533,-14.163 2.74,-17.092 0.626,4.629 1.671,10.325 3.141,17.092 z"
             style="fill:#0d5383;fill-opacity:1;fill-rule:nonzero;stroke:none"
             id="path76"
             inkscape:connector-curvature="0" /></g></g></g></g></svg>