<svg xmlns="http://www.w3.org/2000/svg" width="344.5" height="230.9"><g fill="#6d6e71"><path d="M88.43 132.406h-4.5v-28c0-6.8-2.1-12.6-6.4-17.6-4.3-4.9-9.8-7.4-16.4-7.4-5.9 0-11.2 2.4-15.7 7.2-4.6 4.9-6.9 10.8-6.9 17.8s2.3 12.9 6.9 17.7 9.8 7.2 15.7 7.2c3.5 0 6.7-.7 9.5-2s5.4-3.4 8-6.1v5.3c-2.5 2.1-5.1 3.8-7.7 5.1s-5.9 2-9.8 2c-7.6 0-14.1-2.8-19.4-8.3s-7.9-12.5-7.9-20.9 2.6-15.3 7.9-20.9c5.2-5.6 11.7-8.3 19.5-8.3 7.6 0 14.1 2.8 19.4 8.3s7.9 12.5 7.9 20.9v28zm55.5-14.4c0 4.8-1.7 8.4-5 10.8-3.4 2.4-8.2 3.6-14.6 3.6h-24.2v-4.3h25.1c4.7 0 8.1-.9 10.3-2.5 2.2-1.7 3.3-4 3.3-6.9 0-5.1-3.4-8.8-10.1-11.1l-18.6-5c-6.8-2.6-10.2-6.8-10.2-12.6 0-3.9 1.3-7.1 3.8-9.7s6-3.9 10.5-3.9h25.2v4.3h-24.6c-2.6 0-4.9.8-6.8 2.4s-2.9 3.9-2.9 6.8c0 4.5 3.2 7.6 9.6 9.5l19 5.2c6.8 2.7 10.2 7.2 10.2 13.4m35.9 14.4h-8c-5.3 0-9.3-1.4-12.1-4.2s-4.2-6.7-4.2-11.9v-55.3h4.5v15.4h19.8v4.3h-19.9v36.1c0 3.5 1 6.2 3 8.3 2 2 4.6 3.1 7.9 3.1h9zm64.7-26.8c0 7.6-2.8 14.1-8.3 19.7-5.6 5.6-12.3 8.3-20.2 8.3-8.7 0-15.8-2.8-21.5-8.4s-8.5-12.5-8.5-20.7c0-8.1 2.7-15 8.2-20.7 5.4-5.7 12.4-8.6 20.9-8.6 5.2 0 10 1.2 14.4 3.7s7.9 5.8 10.5 10l-40.1 27.2-2.8-3.8 36.1-24.3c-4.5-5.7-10.5-8.5-18.1-8.5-7 0-12.8 2.5-17.4 7.5s-6.9 10.9-6.9 17.8c0 6.8 2.3 12.6 7 17.4 4.6 4.8 10.4 7.2 17.4 7.2 6.7 0 12.5-2.3 17.3-7s7.3-10.3 7.3-16.7h4.7z"/><path d="M306.13 132.406h-4.5v-28c0-6.8-2.1-12.6-6.4-17.6-4.3-4.9-9.8-7.4-16.4-7.4-5.9 0-11.2 2.4-15.7 7.2-4.6 4.8-6.9 10.7-6.9 17.7s2.3 12.9 6.9 17.7 9.8 7.2 15.7 7.2c3.5 0 6.7-.7 9.5-2s5.4-3.4 8-6.1v5.3c-2.5 2.1-5.1 3.8-7.7 5.1s-5.9 2-9.8 2c-7.6 0-14.1-2.8-19.4-8.3s-7.9-12.5-7.9-20.9 2.6-15.3 7.9-20.9c5.2-5.6 11.7-8.3 19.4-8.3 7.6 0 14.1 2.8 19.4 8.3s7.9 12.5 7.9 20.9zm-246.5 38.5c0 2.4-.8 4.2-2.4 5.5s-3.8 1.9-6.7 1.9h-10.5v-1.6h10.2c2.4 0 4.2-.5 5.5-1.4s1.9-2.3 1.9-4.1c0-2.7-1.5-4.7-4.6-5.9l-8.5-2.7c-3.1-1.4-4.6-3.7-4.6-6.8 0-2.1.7-3.7 2.1-4.8s3.2-1.7 5.4-1.7h10.3v1.6h-9.6c-2.3 0-3.9.4-4.9 1.3s-1.5 2.1-1.5 3.8c0 2.5 1.5 4.3 4.6 5.4l8.5 2.8c3.2 1.3 4.8 3.6 4.8 6.7m41-7.2c0 4.1-1.4 7.7-4.3 10.6s-6.4 4.4-10.5 4.4-7.6-1.5-10.5-4.4c-2.8-2.9-4.3-6.5-4.3-10.6s1.4-7.7 4.3-10.6c2.8-2.9 6.3-4.4 10.5-4.4 4.1 0 7.6 1.5 10.5 4.4s4.3 6.5 4.3 10.6m-1.8 0c0-3.7-1.3-6.8-3.8-9.5s-5.6-4-9.2-4c-3.7 0-6.7 1.3-9.2 4-2.5 2.6-3.7 5.8-3.7 9.5s1.2 6.9 3.7 9.5 5.5 3.9 9.2 3.9 6.8-1.3 9.3-4c2.5-2.6 3.7-5.7 3.7-9.4m27.8 14.5h-6.1c-1.9 0-3.7-.8-5.2-2.3s-2.3-3.6-2.3-6.3v-20.5h1.7v20.4c0 2.1.6 3.8 1.7 5.1s2.7 2 4.6 2h5.5v1.6zm30.8-9.5c0 3.1-.9 5.5-2.7 7.3s-4.3 2.7-7.3 2.7c-3.1 0-5.5-.9-7.3-2.7s-2.7-4.2-2.7-7.3v-19.6h1.7v20.1c0 2.4.8 4.3 2.3 5.7s3.5 2.1 6 2.1 4.5-.7 6-2.1 2.3-3.3 2.3-5.8v-20.1h1.7zm29.4-18.1h-8.2v27.6h-1.8v-27.6h-8.2v-1.5h18.2zm12.1-1.5h1.7v29.1h-1.7zm44.7 14.6c0 4.1-1.4 7.7-4.3 10.6s-6.4 4.4-10.5 4.4-7.6-1.5-10.5-4.4c-2.8-2.9-4.3-6.5-4.3-10.6s1.4-7.7 4.3-10.6c2.8-2.9 6.3-4.4 10.5-4.4 4.1 0 7.6 1.5 10.5 4.4 2.8 2.9 4.3 6.5 4.3 10.6m-1.8 0c0-3.7-1.3-6.8-3.8-9.5s-5.6-4-9.2-4-6.7 1.3-9.2 4c-2.5 2.6-3.7 5.8-3.7 9.5s1.2 6.9 3.7 9.5 5.5 3.9 9.2 3.9 6.8-1.3 9.3-4c2.4-2.6 3.7-5.7 3.7-9.4m66.5 7.2c0 2.4-.8 4.2-2.4 5.5s-3.8 1.9-6.7 1.9h-10.4v-1.6h10.2c2.4 0 4.2-.5 5.5-1.4s2-2.3 2-4.1c0-2.7-1.5-4.7-4.6-5.9l-8.5-2.7c-3.1-1.4-4.6-3.7-4.6-6.8 0-2.1.7-3.7 2.1-4.8s3.2-1.7 5.4-1.7h10.3v1.6h-9.6c-2.3 0-3.9.4-4.9 1.3s-1.5 2.1-1.5 3.8c0 2.5 1.5 4.3 4.6 5.4l8.5 2.8c3.1 1.3 4.6 3.6 4.6 6.7m-31.9 7.4h-1.7v-20.1c0-2.5-.8-4.4-2.3-5.8s-3.5-2.1-6-2.1-4.5.7-6 2.1-2.3 3.3-2.3 5.7v20.1h-1.7v-19.6c0-3.1.9-5.6 2.7-7.3 1.8-1.8 4.2-2.7 7.3-2.7s5.5.9 7.3 2.7 2.7 4.2 2.7 7.3z"/></g><g fill="#5d8a3d"><path d="M243.63 47.206l.2.2c.1.1.7.8 1.5 1.7.6-2.1 1.2-4.8 1.2-7.9 0-4.7-.9-13.5-2.9-13.5-2.1 0-3 8.8-3 13.5 0 3 .6 5.8 1.2 7.9a19.25 19.25 0 0 1 1.5-1.7zm3.4 7.9c2.1.7 5.4 1.6 9.1 1.6 5.4 0 13.5-.9 13.5-2.9 0-2.1-8.8-3-13.5-3-3.5 0-6.7.8-8.8 1.5.1.3.2.6.2.9 0 .7-.2 1.3-.5 1.9zm-4.7 1.8a27.08 27.08 0 0 0-1.7 9.3c0 4.7.9 13.5 3 13.5 2 0 2.9-8 2.9-13.5 0-3.8-1-7.2-1.7-9.3-.4.1-.8.2-1.2.2-.5 0-.9 0-1.3-.2zm-2.4-4.6c-2.1-.7-5.3-1.5-8.8-1.5-4.7 0-13.5.9-13.5 3 0 2 8 2.9 13.5 2.9 3.7 0 6.9-.9 9.1-1.6-.3-.5-.5-1.2-.5-1.8 0-.3 0-.6.2-1z"/><path d="M238.53 45.306c-2.9-2.9-6.8-5.9-8.4-5.9-.3 0-.5.1-.6.2-1.2 1.2 3.4 6.7 5.7 9 1.6 1.6 3.3 2.7 4.8 3.5.3-.9 1-1.9 1.7-2.7-.9-1.2-1.9-2.7-3.2-4.1zm6.4 11.6c.8 1.5 2 3.5 3.8 5.3 2.9 2.9 6.8 5.9 8.4 5.9.3 0 .5-.1.6-.2 1.2-1.2-3.4-6.7-5.7-9-1.7-1.7-3.6-2.9-5.1-3.7-.4.8-1.1 1.4-2 1.7z"/><path d="M240.23 55.206c-1.5.8-3.3 2-5.1 3.7-2.3 2.3-6.9 7.8-5.7 9 .1.1.3.2.6.2 1.6 0 5.5-3 8.4-5.9 1.8-1.8 3-3.8 3.8-5.3-.8-.3-1.5-.9-2-1.7zm11.8-6.6c2.3-2.3 6.9-7.8 5.7-9-.1-.1-.3-.2-.6-.2-1.6 0-5.5 3-8.4 5.9-1.4 1.4-2.4 2.8-3.1 4.1.7.8 1.3 1.8 1.7 2.7a20.99 20.99 0 0 0 4.7-3.5z"/></g></svg>